<?xml version="1.0" encoding="utf-8"?>
<!-- Generator: Adobe Illustrator 27.1.1, SVG Export Plug-In . SVG Version: 6.00 Build 0)  -->
<svg version="1.1" id="Layer_1" xmlns="http://www.w3.org/2000/svg" xmlns:xlink="http://www.w3.org/1999/xlink" x="0px" y="0px"
	 viewBox="0 0 221 129" style="enable-background:new 0 0 221 129;" xml:space="preserve">
<style type="text/css">
	.st0{fill:none;}
	.st1{fill:#E1D5E7;}
	.st2{fill:#D5E8D4;}
	.st3{fill:none;stroke:#000000;stroke-width:1.5;stroke-miterlimit:10;}
	.st4{stroke:#000000;stroke-width:1.5;stroke-miterlimit:10;}
	.st5{fill:#B1DDF0;stroke:#000000;}
	.st6{font-family:'Helvetica-Bold';}
	.st7{font-size:12px;}
	.st8{fill:#FAD7AC;stroke:#000000;}
	.st9{fill:#BAC8D3;stroke:#000000;}
	.st10{fill:none;stroke:#000000;stroke-width:1.5;stroke-miterlimit:10;stroke-dasharray:4.5,4.5;}
	.st11{font-size:9px;}
	.st12{font-family:'Helvetica';}
	.st13{font-size:7px;}
	.st14{fill:none;stroke:#000000;stroke-miterlimit:10;stroke-dasharray:1,1;}
	.st15{fill:#FFFFFF;stroke:#000000;}
	.st16{fill:#F5F5F5;stroke:#000000;stroke-width:0.5;}
	.st17{fill:none;stroke:#000000;stroke-width:0.5;stroke-miterlimit:10;}
	.st18{fill:#E1D5E7;stroke:#000000;stroke-width:0.5;}
	.st19{fill:#FAD7AC;stroke:#000000;stroke-width:0.5;}
</style>
<path class="st0" d="z"/>
<g>
	<path pointer-events="all" class="st1" d="M143,45.5h67c5.8,0,10.5,4.7,10.5,10.5v49c0,5.8-4.7,10.5-10.5,10.5h-67
		c-5.8,0-10.5-4.7-10.5-10.5V56C132.5,50.2,137.2,45.5,143,45.5z"/>
	<path pointer-events="all" class="st2" d="M11,45.5h105c5.8,0,10.5,4.7,10.5,10.5v49c0,5.8-4.7,10.5-10.5,10.5H11
		c-5.8,0-10.5-4.7-10.5-10.5V56C0.5,50.2,5.2,45.5,11,45.5z"/>
	<path pointer-events="stroke" class="st3" d="M108.5,73.5c0,0,10.3,0,30.8,0"/>
	<path pointer-events="all" class="st4" d="M146.8,73.5l-7.5,2.5v-5L146.8,73.5z"/>
	<path pointer-events="stroke" class="st3" d="M90.5,95.5c0,13.3,0,19,0,17s0,0.6,0,7.8"/>
	<path pointer-events="all" class="st4" d="M90.5,127.8l-2.5-7.5h5L90.5,127.8z"/>
	<ellipse pointer-events="all" class="st5" cx="90.5" cy="80.5" rx="15" ry="15"/>
	<g transform="translate(-0.5 -0.5)">
		<text transform="matrix(1 0 0 1 80.835 84.5)" class="st6 st7">Cpl</text>
	</g>
	<path pointer-events="stroke" class="st3" d="M148.5,83.5c0,0-10.3,0-30.8,0"/>
	<path pointer-events="all" class="st4" d="M110.2,83.5l7.5-2.5v5L110.2,83.5z"/>
	<ellipse pointer-events="all" class="st5" cx="165.5" cy="80.5" rx="15" ry="15"/>
	<g transform="translate(-0.5 -0.5)">
		<text transform="matrix(1 0 0 1 153.8369 84.5)" class="st6 st7">Cint</text>
	</g>
	<ellipse pointer-events="all" class="st8" cx="29.5" cy="80.5" rx="15" ry="15"/>
	<g transform="translate(-0.5 -0.5)">
		<text transform="matrix(1 0 0 1 19.501 84.5)" class="st6 st7">Gpl</text>
	</g>
	<path pointer-events="stroke" class="st3" d="M90.5,25.5c0,0,0,10.3,0,30.8"/>
	<path pointer-events="all" class="st4" d="M90.5,63.8L88,56.3h5L90.5,63.8z"/>
	<rect x="85.5" y="15.5" pointer-events="all" class="st9" width="10" height="10"/>
	<path pointer-events="stroke" class="st10" d="M29.5,65.5c0-30,15.6-45,46.8-45"/>
	<path pointer-events="all" class="st4" d="M83.8,20.5L76.3,23v-5L83.8,20.5z"/>
	<rect x="50.5" y="0.5" pointer-events="all" class="st0" width="45" height="10"/>
	<g transform="translate(-0.5 -0.5)">
		<text transform="matrix(1 0 0 1 53.4851 8.5)" class="st6 st11">Pancreas</text>
	</g>
	<rect x="93.5" y="99.5" pointer-events="all" class="st0" width="10" height="10"/>
	<g transform="translate(-0.5 -0.5)">
		<text transform="matrix(1 0 0 1 93.4946 107.5)" class="st6 st11">k0</text>
	</g>
	<rect x="108.5" y="61.5" pointer-events="all" class="st0" width="10" height="10"/>
	<g transform="translate(-0.5 -0.5)">
		<text transform="matrix(1 0 0 1 108.4946 69.5)" class="st6 st11">k2</text>
	</g>
	<rect x="137.9" y="85.5" pointer-events="all" class="st0" width="10" height="10"/>
	<g transform="translate(-0.5 -0.5)">
		<text transform="matrix(1 0 0 1 137.4946 93.5)" class="st6 st11">k1</text>
	</g>
	<rect x="95.5" y="30.5" pointer-events="all" class="st0" width="10" height="10"/>
	<g transform="translate(-0.5 -0.5)">
		<text transform="matrix(1 0 0 1 92.2493 38.5)" class="st6 st11">P(...</text>
	</g>
	<rect x="2.5" y="105.5" pointer-events="all" class="st0" width="60" height="10"/>
	<g transform="translate(-0.5 -0.5)">
		<text transform="matrix(1 0 0 1 4.5 112.5)" class="st12 st13">Plasma</text>
	</g>
	<rect x="134.5" y="105.5" pointer-events="all" class="st0" width="65" height="10"/>
	<g transform="translate(-0.5 -0.5)">
		<text transform="matrix(1 0 0 1 136.5 112.5)" class="st12 st13">Interstitial fluid</text>
	</g>
	<path pointer-events="stroke" class="st14" d="M95.5,15.5L145.6,3"/>
	<path pointer-events="stroke" class="st14" d="M95.5,25.5L145.6,38"/>
	<path pointer-events="none" class="st15" d="M137.8,3h41.9c2.9,0,5.2,2.4,5.2,5.2v24.5c0,2.9-2.4,5.2-5.2,5.2h-41.9
		c-2.9,0-5.2-2.4-5.2-5.2V8.2C132.5,5.4,134.9,3,137.8,3z"/>
	<ellipse pointer-events="none" class="st16" cx="153.7" cy="8.2" rx="3" ry="3"/>
	<ellipse pointer-events="none" class="st16" cx="153.7" cy="16.5" rx="3" ry="3"/>
	<ellipse pointer-events="none" class="st16" cx="153.7" cy="24.7" rx="3" ry="3"/>
	<ellipse pointer-events="none" class="st16" cx="153.7" cy="32.7" rx="3" ry="3"/>
	<path pointer-events="none" class="st17" d="M161.6,10.4l-5.7,20.2"/>
	<path pointer-events="none" class="st17" d="M161.6,10.4l-5.7,4"/>
	<path pointer-events="none" class="st17" d="M160.7,8.2h-4"/>
	<ellipse pointer-events="none" class="st16" cx="163.7" cy="8.2" rx="3" ry="3"/>
	<path pointer-events="none" class="st17" d="M155.8,22.6l5.7-12.2"/>
	<path pointer-events="none" class="st17" d="M161.6,18.6l-5.7,12"/>
	<ellipse pointer-events="none" class="st16" cx="163.7" cy="16.5" rx="3" ry="3"/>
	<path pointer-events="none" class="st17" d="M155.8,10.4l5.7,4"/>
	<path pointer-events="none" class="st17" d="M156.7,16.5h4"/>
	<path pointer-events="none" class="st17" d="M155.8,22.6l5.7-4"/>
	<ellipse pointer-events="none" class="st16" cx="163.7" cy="24.7" rx="3" ry="3"/>
	<path pointer-events="none" class="st17" d="M155.8,10.4l5.7,12.2"/>
	<path pointer-events="none" class="st17" d="M155.8,18.6l5.7,4"/>
	<path pointer-events="none" class="st17" d="M156.7,24.7h4"/>
	<path pointer-events="none" class="st17" d="M155.8,30.6l5.7-3.7"/>
	<path pointer-events="none" class="st17" d="M161.6,30.6l-5.7-20.2"/>
	<ellipse pointer-events="none" class="st16" cx="163.7" cy="32.7" rx="3" ry="3"/>
	<path pointer-events="none" class="st17" d="M155.8,18.6l5.7,12"/>
	<path pointer-events="none" class="st17" d="M155.8,26.9l5.7,3.7"/>
	<path pointer-events="none" class="st17" d="M156.7,32.7h4"/>
	<ellipse pointer-events="none" class="st18" cx="173.7" cy="20" rx="3" ry="3"/>
	<path pointer-events="none" class="st17" d="M165.8,10.4l4.9,9.6"/>
	<path pointer-events="none" class="st17" d="M166.7,16.5l4,3.5"/>
	<path pointer-events="none" class="st17" d="M166.7,24.7l4-4.8"/>
	<path pointer-events="none" class="st17" d="M165.8,30.6l4.9-10.6"/>
	<path pointer-events="none" class="st17" d="M146.7,20.5l4,12.3"/>
	<ellipse pointer-events="none" class="st19" cx="143.7" cy="20.5" rx="3" ry="3"/>
	<path pointer-events="none" class="st17" d="M146.7,20.5l4-12.2"/>
	<path pointer-events="none" class="st17" d="M146.7,20.5l4-4"/>
	<path pointer-events="none" class="st17" d="M150.7,24.7l-4-4.2"/>
</g>
<path class="st0" d="z"/>
</svg>
